<svg xmlns="http://www.w3.org/2000/svg" width="1680" height="730" viewBox="0 0 1680 730" fill="none">
    <circle cx="0.5" cy="0.5" r="0.5" transform="translate(200 200) rotate(30)" fill="white"></circle>
    <circle cx="0.5" cy="0.5" r="0.5" transform="translate(250 50) rotate(-10)" fill="white"></circle>
    <circle cx="0.5" cy="0.5" r="0.5" transform="translate(500 300) rotate(25) scale(1.5)" fill="white"></circle>
    <circle cx="0.5" cy="0.5" r="0.5" transform="translate(220 360) rotate(-10)" fill="white"></circle>
    <circle cx="0.5" cy="0.5" r="0.5" transform="translate(600 100) rotate(-10)" fill="white"></circle>
    <circle cx="0.5" cy="0.5" r="0.5" transform="translate(1000 600) rotate(-80)" fill="white"></circle>
    <circle cx="0.5" cy="0.5" r="0.5" transform="translate(550 270) rotate(70)" fill="white"></circle>
    <circle cx="0.5" cy="0.5" r="0.5" transform="translate(1300 350) rotate(70)" fill="white"></circle>
    <circle cx="0.5" cy="0.5" r="0.5" transform="translate(150 150) rotate(70)" fill="white"></circle>
    <circle cx="0.5" cy="0.5" r="0.5" transform="translate(170 180) rotate(70)" fill="white"></circle>
    <circle cx="0.5" cy="0.5" r="0.5" transform="translate(850 220) rotate(70)" fill="white"></circle>
    <circle cx="0.5" cy="0.5" r="0.5" transform="translate(800 500) rotate(-70)" fill="white"></circle>
    <circle cx="0.5" cy="0.5" r="0.5" transform="translate(110 570) rotate(-70)" fill="white"></circle>
    <circle cx="0.5" cy="0.5" r="0.5" transform="translate(1170 530) rotate(-70)" fill="white"></circle>
    <circle cx="0.5" cy="0.5" r="0.5" transform="translate(350 300) rotate(-160)" fill="white"></circle>
    <circle cx="0.5" cy="0.5" r="0.5" transform="translate(620 550) rotate(-160)" fill="white"></circle>
    <circle cx="0.5" cy="0.5" r="0.5" transform="translate(270 320) rotate(-160)" fill="white"></circle>
    <circle cx="0.5" cy="0.5" r="0.5" transform="translate(1500 580) rotate(-160)" fill="white"></circle>
    <circle cx="0.5" cy="0.5" r="0.5" transform="translate(520 500) rotate(-120)" fill="white"></circle>
    <circle cx="0.5" cy="0.5" r="0.5" transform="translate(1280 370) rotate(-120)" fill="white"></circle>
    <circle cx="0.5" cy="0.5" r="0.5" transform="translate(1100 270) rotate(-120)" fill="white"></circle>
    <circle cx="0.5" cy="0.5" r="0.5" transform="translate(100 220) rotate(-120)" fill="white"></circle>
    <circle cx="0.5" cy="0.5" r="0.5" transform="translate(1250 270) rotate(-120)" fill="white"></circle>
    <circle cx="0.5" cy="0.5" r="0.5" transform="translate(1380 210) rotate(-160)" fill="white"></circle>
    <circle cx="0.5" cy="0.5" r="0.5" transform="translate(400 220) rotate(-140)" fill="white"></circle>
    <circle cx="0.5" cy="0.5" r="0.5" transform="translate(720 210) rotate(-140)" fill="white"></circle>
    <circle cx="0.5" cy="0.5" r="0.5" transform="translate(1300 280) rotate(-140)" fill="white"></circle>
    <circle cx="0.5" cy="0.5" r="0.5" transform="translate(350 350) rotate(-140)" fill="white"></circle>
    <circle cx="0.5" cy="0.5" r="0.5" transform="translate(1100 280) rotate(-140)" fill="white"></circle>
    <circle cx="0.5" cy="0.5" r="0.5" transform="translate(1200 250) rotate(-145)" fill="white"></circle>
    <circle cx="0.5" cy="0.5" r="0.5" transform="translate(1200 230) rotate(-145)" fill="white"></circle>
    <circle cx="0.5" cy="0.5" r="0.5" transform="translate(1250 200) rotate(-145)" fill="white"></circle>
    <circle cx="0.5" cy="0.5" r="0.5" transform="translate(400 250) rotate(-145)" fill="white"></circle>
    <circle cx="0.5" cy="0.5" r="0.5" transform="translate(420 270) rotate(-145)" fill="white"></circle>
    <circle cx="0.5" cy="0.5" r="0.5" transform="translate(480 510) rotate(-175)" fill="white"></circle>
    <circle cx="0.5" cy="0.5" r="0.5" transform="translate(780 520) rotate(-175)" fill="white"></circle>
    <circle cx="0.5" cy="0.5" r="0.5" transform="translate(710 700) rotate(-175)" fill="white"></circle>
    <circle cx="0.5" cy="0.5" r="0.5" transform="translate(870 720) rotate(-175)" fill="white"></circle>
    <circle cx="0.5" cy="0.5" r="0.5" transform="translate(610 710) rotate(-175)" fill="white"></circle>
    <circle cx="0.5" cy="0.5" r="0.5" transform="translate(880 810) rotate(-175)" fill="white"></circle>
    <circle cx="0.5" cy="0.5" r="0.5" transform="translate(800 100) rotate(-175)" fill="white"></circle>
</svg>
